<svg width="87" height="85" viewBox="0 0 87 85" fill="none" xmlns="http://www.w3.org/2000/svg">
<path fill-rule="evenodd" clip-rule="evenodd" d="M28.2635 0.572921L0.187728 33.5971L13.664 72.7804L56.9871 84.1545L86.3755 50.6735L72.0048 8.88962L28.2635 0.572921ZM78.2227 31.1386L71.2304 10.8078L59.8955 23.7211L66.9745 44.3038L78.2227 31.1386ZM78.7347 32.6272L84.837 50.3704L73.5022 63.2837L67.4864 45.7924L78.7347 32.6272ZM66.4639 46.9892L72.4717 64.4576L57.0151 82.0666L51.1254 64.9418L66.4639 46.9892ZM49.8406 65.3761L55.7006 82.4145L32.8407 76.4128L27.336 60.4075L49.8406 65.3761ZM26.8191 58.9045L49.3237 63.8731L42.1236 42.9384L19.855 38.3385L19.7775 38.4307L26.8191 58.9045ZM25.7839 60.0649L31.2641 75.9989L14.7104 71.6529L9.4875 56.4669L25.7839 60.0649ZM8.97058 54.9639L25.267 58.5618L18.2453 38.1456L18.3453 38.0267L1.98293 34.6468L8.97058 54.9639ZM50.6134 63.4532L65.9519 45.5006L58.8651 24.895L43.4084 42.5041L50.6134 63.4532ZM57.705 24.1608L42.3899 41.6086L20.8471 37.1586L35.3493 19.9102L57.705 24.1608ZM33.8216 19.6197L19.3374 36.8467L2.21247 33.3093L16.6297 16.351L33.8216 19.6197ZM17.6401 15.1626L34.8223 18.4295L45.8619 5.29949L28.7855 2.0527L17.6401 15.1626ZM47.3896 5.58995L36.35 18.72L58.7435 22.9777L70.1991 9.9268L47.3896 5.58995Z" fill="url(#paint0_linear_1476_422)"/>
<defs>
<linearGradient id="paint0_linear_1476_422" x1="-0.687259" y1="34.3742" x2="58.549" y2="47.4327" gradientUnits="userSpaceOnUse">
<stop stop-color="white" stop-opacity="0.35"/>
<stop offset="1" stop-color="#3C3C3C"/>
</linearGradient>
</defs>
</svg>
