<svg width="417" height="370" viewBox="0 0 417 370" fill="none" xmlns="http://www.w3.org/2000/svg">
<path fill-rule="evenodd" clip-rule="evenodd" d="M308.333 0.547246L100.168 2.91134L0.663983 175.257L96.0119 368.094L309.97 369.047L416.078 185.263L308.333 0.547246ZM355.057 277.927L406.686 188.503L324.164 188.136L271.896 278.667L355.057 277.927ZM351.277 284.474L306.219 362.517L223.697 362.149L268.116 285.215L351.277 284.474ZM260.555 285.282L216.195 362.116L103.666 361.615L147.153 286.292L260.555 285.282ZM141.53 283.005L98.2614 357.948L47.95 256.195L88.5946 185.797L141.53 283.005ZM92.4114 179.186L145.346 276.394L198.509 184.315L144.982 89.1229L144.404 89.1326L92.4114 179.186ZM84.944 179.092L44.4803 249.178L8.04794 175.494L46.6118 108.7L84.944 179.092ZM50.4286 102.089L88.7607 172.482L140.607 82.682L141.353 82.6694L102.023 12.7252L50.4286 102.089ZM150.933 279.744L264.336 278.735L316.662 188.102L204.132 187.601L150.933 279.744ZM315.666 181.584L204.167 181.088L152.384 88.9984L260.599 87.1779L315.666 181.584ZM256.836 80.7267L148.756 82.5449L107.593 9.34106L214.488 8.12707L256.836 80.7267ZM221.979 8.04199L264.303 80.6011L346.68 79.2153L304.617 7.10349L221.979 8.04199ZM350.443 85.6666L268.066 87.0523L323.227 181.618L406.628 181.989L350.443 85.6666Z" fill="url(#paint0_linear_1445_765)"/>
<defs>
<linearGradient id="paint0_linear_1445_765" x1="94.5933" y1="2.19053" x2="233.999" y2="258" gradientUnits="userSpaceOnUse">
<stop stop-color="white" stop-opacity="0.35"/>
<stop offset="1" stop-color="#3C3C3C"/>
</linearGradient>
</defs>
</svg>
