<svg width="204" height="198" viewBox="0 0 204 198" fill="none" xmlns="http://www.w3.org/2000/svg">
<path fill-rule="evenodd" clip-rule="evenodd" d="M135.099 0.937746L34.2135 20.271L0.947059 112.66L64.0974 197.98L168.086 179.751L203.561 81.2295L135.099 0.937746ZM182.022 131.561L199.283 83.6235L159.175 90.6541L141.7 139.186L182.022 131.561ZM180.758 135.071L165.694 176.907L125.587 183.938L140.437 142.696L180.758 135.071ZM136.771 143.389L121.94 184.577L67.2483 194.164L81.7873 153.786L136.771 143.389ZM78.7691 152.681L64.3035 192.856L30.9815 147.836L44.57 110.097L78.7691 152.681ZM45.846 106.553L80.0451 149.137L97.8186 99.7757L63.5082 58.2234L63.2283 58.2786L45.846 106.553ZM42.2114 107.161L28.6835 144.731L4.55374 112.131L17.4466 76.3241L42.2114 107.161ZM18.7226 72.7802L43.4875 103.617L60.8208 55.4776L61.1821 55.4063L35.9718 24.8748L18.7226 72.7802ZM83.0511 150.276L138.035 139.879L155.529 91.2933L100.837 100.88L83.0511 150.276ZM154.476 88.2149L100.284 97.7142L67.0924 57.5162L119.486 47.1786L154.476 88.2149ZM117.095 44.3744L64.7663 54.6992L38.3811 22.7448L90.1873 12.817L117.095 44.3744ZM93.8178 12.1212L120.71 43.6611L160.594 35.7918L133.867 4.44635L93.8178 12.1212ZM162.985 38.596L123.101 46.4653L158.15 87.5708L198.685 80.4652L162.985 38.596Z" fill="url(#paint0_linear_1476_420)"/>
<defs>
<linearGradient id="paint0_linear_1476_420" x1="31.4435" y1="20.4079" x2="167.252" y2="185.382" gradientUnits="userSpaceOnUse">
<stop stop-color="white" stop-opacity="0.75"/>
<stop offset="1" stop-color="#3C3C3C"/>
</linearGradient>
</defs>
</svg>
