<svg width="90" height="92" viewBox="0 0 90 92" fill="none" xmlns="http://www.w3.org/2000/svg">
<path fill-rule="evenodd" clip-rule="evenodd" d="M54.6445 0.966881L10.939 14.7506L0.975029 57.411L33.3704 91.9527L78.508 78.4981L89.1333 33.0063L54.6445 0.966881ZM82.1914 56.4232L87.3614 34.2883L69.9522 39.4777L64.7182 61.8868L82.1914 56.4232ZM81.8129 58.0439L77.301 77.3616L59.8918 82.551L64.3397 63.5076L81.8129 58.0439ZM62.7512 64.0042L58.3091 83.0227L34.5693 90.0991L38.924 71.4546L62.7512 64.0042ZM37.5294 71.1211L33.1967 89.6715L16.103 71.4452L20.173 54.0196L37.5294 71.1211ZM20.5552 52.3832L37.9117 69.4847L43.2351 46.6924L25.8827 30.0535L25.7615 30.0925L20.5552 52.3832ZM18.976 52.8401L14.9241 70.1882L2.54586 56.9898L6.40751 40.4563L18.976 52.8401ZM6.78971 38.8199L19.3582 51.2038L24.5498 28.9758L24.7063 28.9255L11.9562 16.6998L6.78971 38.8199ZM39.3026 69.8339L63.1297 62.3835L68.3695 39.9494L44.6297 47.0258L39.3026 69.8339ZM67.7437 38.6398L44.2212 45.6514L27.4344 29.5548L50.1168 22.2648L67.7437 38.6398ZM48.9123 21.1458L26.2579 28.4268L12.9137 15.6313L35.357 8.55322L48.9123 21.1458ZM36.9298 8.05719L50.4775 20.6428L67.7441 15.0933L54.2799 2.58535L36.9298 8.05719ZM68.9487 16.2123L51.6821 21.7617L69.3386 38.1643L86.9333 32.9197L68.9487 16.2123Z" fill="url(#paint0_linear_1476_421)"/>
<defs>
<linearGradient id="paint0_linear_1476_421" x1="9.71858" y1="14.9545" x2="78.4295" y2="81.0366" gradientUnits="userSpaceOnUse">
<stop stop-color="white" stop-opacity="0.75"/>
<stop offset="1" stop-color="#3C3C3C"/>
</linearGradient>
</defs>
</svg>
