<svg width="486" height="302" viewBox="0 0 486 302" fill="none" xmlns="http://www.w3.org/2000/svg">
<path opacity="0.1" d="M282.372 52.2914C251.217 51.2986 221.54 42.0505 193.207 31.9359C164.873 21.8213 136.8 10.6008 106.388 5.25395C86.8268 1.80549 64.4615 1.33525 48.6993 10.9578C33.5369 20.2321 28.6335 36.2465 25.9993 51.1071C24.017 62.284 22.852 74.0488 28.2814 84.5161C32.0546 91.7788 38.749 97.8876 43.3786 104.845C59.4929 129.063 48.1037 158.923 30.6418 182.566C22.4521 193.643 12.9539 204.241 6.63337 216.045C0.312831 227.849 -2.60401 241.382 2.92103 253.425C8.4026 265.364 21.461 274.325 35.6105 280.638C64.3441 293.448 98.2073 297.114 131.244 299.191C204.313 303.802 277.777 301.795 351.081 299.805C378.202 299.065 405.418 298.32 432.122 294.463C446.937 292.32 462.234 288.924 472.984 280.721C486.642 270.31 490.024 252.676 480.874 239.623C465.529 217.721 423.093 212.279 412.365 188.78C406.449 175.839 412.534 161.423 421.111 149.432C439.516 123.694 470.371 101.101 471.997 71.6933C473.114 51.4859 458.282 31.248 435.348 21.6863C411.309 11.6719 377.967 12.9259 360.236 29.5237C341.974 46.5962 309.884 53.1709 282.372 52.2914Z" fill="white"/>
<g clip-path="url(#clip0_1102_1541)">
<path d="M424.151 275.107L424.615 264.683C429.447 262.1 434.838 260.735 440.317 260.708C432.776 266.874 433.718 278.76 428.605 287.051C426.99 289.625 424.817 291.803 422.247 293.423C419.676 295.043 416.774 296.063 413.755 296.409L407.444 300.273C406.578 295.445 406.769 290.487 408.004 285.74C409.239 280.993 411.488 276.571 414.596 272.776C416.361 270.665 418.385 268.785 420.62 267.179C422.132 271.165 424.151 275.107 424.151 275.107Z" fill="#F2F2F2"/>
<path d="M105.109 263.684L89.8792 259.073C87.8817 250.958 87.8954 242.478 89.919 234.369C96.1909 247.837 114.111 250.921 124.44 261.6C127.635 264.956 130.035 268.988 131.461 273.397C132.887 277.806 133.302 282.479 132.676 287.07L136.01 297.853C128.549 297.314 121.293 295.165 114.743 291.552C108.193 287.939 102.503 282.95 98.0672 276.927C95.612 273.523 93.5952 269.824 92.0644 265.916C98.5239 265.184 105.109 263.684 105.109 263.684Z" fill="#F2F2F2"/>
<path d="M371.378 298.569C371.376 298.884 371.25 299.187 371.028 299.411C370.918 299.52 370.788 299.607 370.644 299.666C370.501 299.725 370.347 299.755 370.192 299.755H365.424C365.268 299.755 365.113 299.725 364.969 299.666C364.825 299.606 364.694 299.519 364.584 299.409C364.473 299.298 364.386 299.167 364.327 299.023C364.267 298.879 364.237 298.725 364.238 298.569V154.37C364.238 151.191 363.17 148.611 361.859 148.605H65.0344C63.7178 148.611 62.6562 151.191 62.6502 154.37V297.685C62.6492 297.98 62.5389 298.264 62.3406 298.482C62.1423 298.7 61.8701 298.836 61.5768 298.865C60.616 298.96 59.6552 299.043 58.7004 299.12C58.6767 299.12 58.6529 299.126 58.6292 299.126C58.1073 299.174 57.5854 299.209 57.0635 299.251H57.0576C56.7848 298.759 56.5238 298.254 56.2569 297.75C56.1714 297.579 56.1267 297.39 56.1265 297.199V146.891C56.1265 146.014 56.1621 145.13 56.2214 144.258C56.306 143.061 56.4545 141.869 56.6662 140.688C57.6684 135.178 59.934 131.448 62.5079 131.436H364.38C364.756 131.439 365.127 131.517 365.471 131.667C365.977 131.891 366.434 132.211 366.817 132.61C367.338 133.151 367.782 133.76 368.14 134.419C369.409 136.655 370.316 139.988 370.637 143.867C370.637 143.902 370.643 143.938 370.643 143.973C370.726 144.934 370.767 145.913 370.761 146.891L370.844 159.601L370.898 167.18L371.058 190.962L371.117 199.408L371.378 298.569Z" fill="#E6E6E6"/>
<path d="M261.216 87.4697H230.966C230.538 87.4704 230.128 87.6409 229.826 87.9439C229.524 88.2469 229.354 88.6575 229.354 89.0854V136.871H262.832V89.0854C262.832 88.8732 262.79 88.6631 262.709 88.467C262.628 88.2709 262.509 88.0928 262.359 87.9427C262.209 87.7927 262.03 87.6736 261.834 87.5925C261.638 87.5113 261.428 87.4696 261.216 87.4697ZM246.193 114.621C245.247 114.617 244.341 114.239 243.672 113.57C243.003 112.901 242.625 111.995 242.621 111.049V105.537C242.621 104.59 242.997 103.681 243.667 103.012C244.337 102.342 245.245 101.965 246.193 101.965C247.14 101.965 248.049 102.342 248.719 103.012C249.388 103.681 249.765 104.59 249.765 105.537V111.049C249.76 111.995 249.383 112.901 248.714 113.57C248.045 114.239 247.139 114.617 246.193 114.621Z" fill="#CCCCCC"/>
<path d="M229.251 135.343V139.953C229.251 140.192 229.347 140.421 229.516 140.59C229.684 140.759 229.913 140.854 230.152 140.854H262.034C262.273 140.853 262.502 140.758 262.67 140.589C262.839 140.42 262.935 140.192 262.936 139.953V135.343H229.251Z" fill="#3F3D56"/>
<path d="M311.307 12.8945H182.001C180.89 12.8963 179.825 13.3384 179.039 14.124C178.254 14.9095 177.812 15.9744 177.81 17.0854V104.342C177.811 105.453 178.253 106.518 179.039 107.304C179.824 108.09 180.89 108.532 182.001 108.533H311.307C312.418 108.532 313.484 108.09 314.269 107.304C315.055 106.518 315.497 105.453 315.498 104.342V17.0854C315.496 15.9744 315.054 14.9095 314.269 14.124C313.483 13.3384 312.418 12.8963 311.307 12.8945Z" fill="#E6E6E6"/>
<path d="M310.228 15.9214H183.081C182.486 15.9227 181.916 16.1599 181.496 16.5809C181.076 17.002 180.84 17.5725 180.84 18.1673V103.261C180.841 103.855 181.077 104.425 181.497 104.845C181.918 105.265 182.487 105.501 183.081 105.502H310.228C310.822 105.501 311.391 105.265 311.811 104.845C312.231 104.425 312.468 103.855 312.469 103.261V18.1673C312.469 17.5725 312.233 17.002 311.813 16.5809C311.392 16.1599 310.822 15.9227 310.228 15.9214Z" fill="white"/>
<path d="M285.462 142.459H209.816C209.609 142.459 209.405 142.412 209.218 142.323C209.031 142.234 208.866 142.105 208.736 141.944C208.605 141.783 208.512 141.595 208.464 141.394C208.415 141.193 208.412 140.983 208.455 140.78L209.628 135.206C209.695 134.894 209.867 134.614 210.114 134.413C210.362 134.212 210.671 134.102 210.99 134.101H284.288C284.607 134.102 284.916 134.212 285.164 134.413C285.411 134.614 285.583 134.894 285.65 135.206L286.823 140.78C286.866 140.983 286.863 141.193 286.814 141.394C286.766 141.595 286.673 141.783 286.542 141.944C286.412 142.105 286.247 142.234 286.06 142.323C285.873 142.412 285.669 142.459 285.462 142.459Z" fill="#CCCCCC"/>
<path d="M213.568 135.105H211.817C211.657 135.105 211.527 135.234 211.527 135.394V136.213C211.527 136.373 211.657 136.503 211.817 136.503H213.568C213.728 136.503 213.857 136.373 213.857 136.213V135.394C213.857 135.234 213.728 135.105 213.568 135.105Z" fill="#E6E6E6"/>
<path d="M218.227 135.105H216.476C216.316 135.105 216.187 135.234 216.187 135.394V136.213C216.187 136.373 216.316 136.503 216.476 136.503H218.227C218.387 136.503 218.516 136.373 218.516 136.213V135.394C218.516 135.234 218.387 135.105 218.227 135.105Z" fill="#E6E6E6"/>
<path d="M222.886 135.105H221.136C220.976 135.105 220.846 135.234 220.846 135.394V136.213C220.846 136.373 220.976 136.503 221.136 136.503H222.886C223.046 136.503 223.176 136.373 223.176 136.213V135.394C223.176 135.234 223.046 135.105 222.886 135.105Z" fill="#E6E6E6"/>
<path d="M227.546 135.105H225.795C225.635 135.105 225.506 135.234 225.506 135.394V136.213C225.506 136.373 225.635 136.503 225.795 136.503H227.546C227.706 136.503 227.836 136.373 227.836 136.213V135.394C227.836 135.234 227.706 135.105 227.546 135.105Z" fill="#E6E6E6"/>
<path d="M232.206 135.105H230.455C230.295 135.105 230.166 135.234 230.166 135.394V136.213C230.166 136.373 230.295 136.503 230.455 136.503H232.206C232.366 136.503 232.495 136.373 232.495 136.213V135.394C232.495 135.234 232.366 135.105 232.206 135.105Z" fill="#E6E6E6"/>
<path d="M236.865 135.105H235.115C234.955 135.105 234.825 135.234 234.825 135.394V136.213C234.825 136.373 234.955 136.503 235.115 136.503H236.865C237.025 136.503 237.155 136.373 237.155 136.213V135.394C237.155 135.234 237.025 135.105 236.865 135.105Z" fill="#E6E6E6"/>
<path d="M241.525 135.105H239.774C239.614 135.105 239.485 135.234 239.485 135.394V136.213C239.485 136.373 239.614 136.503 239.774 136.503H241.525C241.685 136.503 241.815 136.373 241.815 136.213V135.394C241.815 135.234 241.685 135.105 241.525 135.105Z" fill="#E6E6E6"/>
<path d="M246.185 135.105H244.434C244.274 135.105 244.145 135.234 244.145 135.394V136.213C244.145 136.373 244.274 136.503 244.434 136.503H246.185C246.345 136.503 246.474 136.373 246.474 136.213V135.394C246.474 135.234 246.345 135.105 246.185 135.105Z" fill="#E6E6E6"/>
<path d="M250.844 135.105H249.094C248.934 135.105 248.804 135.234 248.804 135.394V136.213C248.804 136.373 248.934 136.503 249.094 136.503H250.844C251.004 136.503 251.134 136.373 251.134 136.213V135.394C251.134 135.234 251.004 135.105 250.844 135.105Z" fill="#E6E6E6"/>
<path d="M255.504 135.105H253.753C253.593 135.105 253.463 135.234 253.463 135.394V136.213C253.463 136.373 253.593 136.503 253.753 136.503H255.504C255.664 136.503 255.793 136.373 255.793 136.213V135.394C255.793 135.234 255.664 135.105 255.504 135.105Z" fill="#E6E6E6"/>
<path d="M260.163 135.105H258.413C258.253 135.105 258.123 135.234 258.123 135.394V136.213C258.123 136.373 258.253 136.503 258.413 136.503H260.163C260.323 136.503 260.453 136.373 260.453 136.213V135.394C260.453 135.234 260.323 135.105 260.163 135.105Z" fill="#E6E6E6"/>
<path d="M264.823 135.105H263.072C262.912 135.105 262.783 135.234 262.783 135.394V136.213C262.783 136.373 262.912 136.503 263.072 136.503H264.823C264.983 136.503 265.112 136.373 265.112 136.213V135.394C265.112 135.234 264.983 135.105 264.823 135.105Z" fill="#E6E6E6"/>
<path d="M269.483 135.105H267.732C267.572 135.105 267.442 135.234 267.442 135.394V136.213C267.442 136.373 267.572 136.503 267.732 136.503H269.483C269.643 136.503 269.772 136.373 269.772 136.213V135.394C269.772 135.234 269.643 135.105 269.483 135.105Z" fill="#E6E6E6"/>
<path d="M274.142 135.105H272.392C272.232 135.105 272.102 135.234 272.102 135.394V136.213C272.102 136.373 272.232 136.503 272.392 136.503H274.142C274.302 136.503 274.432 136.373 274.432 136.213V135.394C274.432 135.234 274.302 135.105 274.142 135.105Z" fill="#E6E6E6"/>
<path d="M278.802 135.105H277.051C276.891 135.105 276.762 135.234 276.762 135.394V136.213C276.762 136.373 276.891 136.503 277.051 136.503H278.802C278.962 136.503 279.092 136.373 279.092 136.213V135.394C279.092 135.234 278.962 135.105 278.802 135.105Z" fill="#E6E6E6"/>
<path d="M283.462 135.105H281.711C281.551 135.105 281.421 135.234 281.421 135.394V136.213C281.421 136.373 281.551 136.503 281.711 136.503H283.462C283.622 136.503 283.751 136.373 283.751 136.213V135.394C283.751 135.234 283.622 135.105 283.462 135.105Z" fill="#E6E6E6"/>
<path d="M213.512 137.435H211.762C211.602 137.435 211.472 137.564 211.472 137.724V138.543C211.472 138.703 211.602 138.832 211.762 138.832H213.512C213.672 138.832 213.802 138.703 213.802 138.543V137.724C213.802 137.564 213.672 137.435 213.512 137.435Z" fill="#E6E6E6"/>
<path d="M218.172 137.435H216.421C216.261 137.435 216.132 137.564 216.132 137.724V138.543C216.132 138.703 216.261 138.832 216.421 138.832H218.172C218.332 138.832 218.462 138.703 218.462 138.543V137.724C218.462 137.564 218.332 137.435 218.172 137.435Z" fill="#E6E6E6"/>
<path d="M222.832 137.435H221.081C220.921 137.435 220.792 137.564 220.792 137.724V138.543C220.792 138.703 220.921 138.832 221.081 138.832H222.832C222.992 138.832 223.121 138.703 223.121 138.543V137.724C223.121 137.564 222.992 137.435 222.832 137.435Z" fill="#E6E6E6"/>
<path d="M227.491 137.435H225.74C225.58 137.435 225.451 137.564 225.451 137.724V138.543C225.451 138.703 225.58 138.832 225.74 138.832H227.491C227.651 138.832 227.78 138.703 227.78 138.543V137.724C227.78 137.564 227.651 137.435 227.491 137.435Z" fill="#E6E6E6"/>
<path d="M232.151 137.435H230.4C230.24 137.435 230.11 137.564 230.11 137.724V138.543C230.11 138.703 230.24 138.832 230.4 138.832H232.151C232.311 138.832 232.44 138.703 232.44 138.543V137.724C232.44 137.564 232.311 137.435 232.151 137.435Z" fill="#E6E6E6"/>
<path d="M236.81 137.435H235.06C234.9 137.435 234.77 137.564 234.77 137.724V138.543C234.77 138.703 234.9 138.832 235.06 138.832H236.81C236.97 138.832 237.1 138.703 237.1 138.543V137.724C237.1 137.564 236.97 137.435 236.81 137.435Z" fill="#E6E6E6"/>
<path d="M241.47 137.435H239.719C239.559 137.435 239.43 137.564 239.43 137.724V138.543C239.43 138.703 239.559 138.832 239.719 138.832H241.47C241.63 138.832 241.759 138.703 241.759 138.543V137.724C241.759 137.564 241.63 137.435 241.47 137.435Z" fill="#E6E6E6"/>
<path d="M246.13 137.435H244.379C244.219 137.435 244.089 137.564 244.089 137.724V138.543C244.089 138.703 244.219 138.832 244.379 138.832H246.13C246.29 138.832 246.419 138.703 246.419 138.543V137.724C246.419 137.564 246.29 137.435 246.13 137.435Z" fill="#E6E6E6"/>
<path d="M250.789 137.435H249.039C248.879 137.435 248.749 137.564 248.749 137.724V138.543C248.749 138.703 248.879 138.832 249.039 138.832H250.789C250.949 138.832 251.079 138.703 251.079 138.543V137.724C251.079 137.564 250.949 137.435 250.789 137.435Z" fill="#E6E6E6"/>
<path d="M255.449 137.435H253.698C253.538 137.435 253.409 137.564 253.409 137.724V138.543C253.409 138.703 253.538 138.832 253.698 138.832H255.449C255.609 138.832 255.738 138.703 255.738 138.543V137.724C255.738 137.564 255.609 137.435 255.449 137.435Z" fill="#E6E6E6"/>
<path d="M260.109 137.435H258.358C258.198 137.435 258.068 137.564 258.068 137.724V138.543C258.068 138.703 258.198 138.832 258.358 138.832H260.109C260.269 138.832 260.398 138.703 260.398 138.543V137.724C260.398 137.564 260.269 137.435 260.109 137.435Z" fill="#E6E6E6"/>
<path d="M264.768 137.435H263.017C262.857 137.435 262.728 137.564 262.728 137.724V138.543C262.728 138.703 262.857 138.832 263.017 138.832H264.768C264.928 138.832 265.057 138.703 265.057 138.543V137.724C265.057 137.564 264.928 137.435 264.768 137.435Z" fill="#E6E6E6"/>
<path d="M269.427 137.435H267.677C267.517 137.435 267.387 137.564 267.387 137.724V138.543C267.387 138.703 267.517 138.832 267.677 138.832H269.427C269.587 138.832 269.717 138.703 269.717 138.543V137.724C269.717 137.564 269.587 137.435 269.427 137.435Z" fill="#E6E6E6"/>
<path d="M274.087 137.435H272.336C272.177 137.435 272.047 137.564 272.047 137.724V138.543C272.047 138.703 272.177 138.832 272.336 138.832H274.087C274.247 138.832 274.377 138.703 274.377 138.543V137.724C274.377 137.564 274.247 137.435 274.087 137.435Z" fill="#E6E6E6"/>
<path d="M278.747 137.435H276.996C276.836 137.435 276.707 137.564 276.707 137.724V138.543C276.707 138.703 276.836 138.832 276.996 138.832H278.747C278.907 138.832 279.036 138.703 279.036 138.543V137.724C279.036 137.564 278.907 137.435 278.747 137.435Z" fill="#E6E6E6"/>
<path d="M283.406 137.435H281.656C281.496 137.435 281.366 137.564 281.366 137.724V138.543C281.366 138.703 281.496 138.832 281.656 138.832H283.406C283.566 138.832 283.696 138.703 283.696 138.543V137.724C283.696 137.564 283.566 137.435 283.406 137.435Z" fill="#E6E6E6"/>
<path d="M252.187 140.23H234.128C233.968 140.23 233.838 140.36 233.838 140.52V141.339C233.838 141.498 233.968 141.628 234.128 141.628H252.187C252.347 141.628 252.477 141.498 252.477 141.339V140.52C252.477 140.36 252.347 140.23 252.187 140.23Z" fill="#E6E6E6"/>
<path d="M303.836 27.6454H184.866C184.742 27.6427 184.624 27.5917 184.538 27.5032C184.451 27.4148 184.403 27.296 184.403 27.1723C184.403 27.0486 184.451 26.9299 184.538 26.8414C184.624 26.753 184.742 26.702 184.866 26.6992H303.836C303.96 26.702 304.077 26.753 304.164 26.8414C304.25 26.9299 304.299 27.0486 304.299 27.1723C304.299 27.296 304.25 27.4148 304.164 27.5032C304.077 27.5917 303.96 27.6427 303.836 27.6454Z" fill="#CACACA"/>
<path d="M192.964 24.2837C194.495 24.2837 195.737 23.0146 195.737 21.4492C195.737 19.8838 194.495 18.6147 192.964 18.6147C191.433 18.6147 190.191 19.8838 190.191 21.4492C190.191 23.0146 191.433 24.2837 192.964 24.2837Z" fill="#CCCCCC"/>
<path d="M202.543 24.2837C204.074 24.2837 205.315 23.0146 205.315 21.4492C205.315 19.8838 204.074 18.6147 202.543 18.6147C201.011 18.6147 199.77 19.8838 199.77 21.4492C199.77 23.0146 201.011 24.2837 202.543 24.2837Z" fill="#CCCCCC"/>
<path d="M212.121 24.2837C213.652 24.2837 214.893 23.0146 214.893 21.4492C214.893 19.8838 213.652 18.6147 212.121 18.6147C210.59 18.6147 209.348 19.8838 209.348 21.4492C209.348 23.0146 210.59 24.2837 212.121 24.2837Z" fill="#CCCCCC"/>
<path d="M298.069 19.3171H291.265C291.13 19.3198 291.002 19.3753 290.908 19.4716C290.813 19.568 290.76 19.6974 290.76 19.8323C290.76 19.9672 290.813 20.0967 290.908 20.193C291.002 20.2893 291.13 20.3448 291.265 20.3475H298.069C298.204 20.3448 298.332 20.2893 298.427 20.193C298.521 20.0967 298.574 19.9672 298.574 19.8323C298.574 19.6974 298.521 19.568 298.427 19.4716C298.332 19.3753 298.204 19.3198 298.069 19.3171Z" fill="#CCCCCC"/>
<path d="M298.069 21.251H291.265C291.13 21.2537 291.002 21.3091 290.908 21.4055C290.813 21.5018 290.76 21.6313 290.76 21.7661C290.76 21.901 290.813 22.0305 290.908 22.1268C291.002 22.2232 291.13 22.2786 291.265 22.2813H298.069C298.204 22.2786 298.332 22.2232 298.427 22.1268C298.521 22.0305 298.574 21.901 298.574 21.7661C298.574 21.6313 298.521 21.5018 298.427 21.4055C298.332 21.3091 298.204 21.2537 298.069 21.251Z" fill="#CCCCCC"/>
<path d="M298.069 23.1824H291.265C291.13 23.1851 291.002 23.2405 290.908 23.3369C290.813 23.4332 290.76 23.5627 290.76 23.6976C290.76 23.8324 290.813 23.9619 290.908 24.0582C291.002 24.1546 291.13 24.21 291.265 24.2127H298.069C298.204 24.21 298.332 24.1546 298.427 24.0582C298.521 23.9619 298.574 23.8324 298.574 23.6976C298.574 23.5627 298.521 23.4332 298.427 23.3369C298.332 23.2405 298.204 23.1851 298.069 23.1824Z" fill="#CCCCCC"/>
<path d="M244.229 34.8191L243.845 33.6964L292.985 8.16357L293.369 9.28625L244.229 34.8191Z" fill="#3F3D56"/>
<path d="M392.496 82.1116L392.112 80.989L421.681 55.5854L422.065 56.7075L392.496 82.1116Z" fill="#3F3D56"/>
<path d="M335.686 88.0251L286.546 62.4923L286.93 61.3696L336.07 86.9024L335.686 88.0251Z" fill="#3F3D56"/>
<path d="M360.842 70.2579L332.033 22.9631L332.944 22.2021L361.751 69.497L360.842 70.2579Z" fill="#3F3D56"/>
<path d="M383.323 8.63159L355.267 8.5023V7.31616L383.323 7.44545V8.63159Z" fill="#3F3D56"/>
<path d="M434.147 15.9889H402.715C400.67 15.9889 398.709 15.1766 397.263 13.7307C395.817 12.2848 395.005 10.3238 395.005 8.27899C395.005 6.23419 395.817 4.27316 397.263 2.82727C398.709 1.38138 400.67 0.569092 402.715 0.569092H434.147C436.192 0.569092 438.153 1.38138 439.599 2.82727C441.045 4.27316 441.857 6.23419 441.857 8.27899C441.857 10.3238 441.045 12.2848 439.599 13.7307C438.153 15.1766 436.192 15.9889 434.147 15.9889Z" fill="#F98D36"/>
<path d="M473.29 61.0621H441.857C439.813 61.0621 437.852 60.2498 436.406 58.8039C434.96 57.3581 434.147 55.397 434.147 53.3522C434.147 51.3074 434.96 49.3464 436.406 47.9005C437.852 46.4546 439.813 45.6423 441.857 45.6423H473.29C475.335 45.6423 477.296 46.4546 478.742 47.9005C480.188 49.3464 481 51.3074 481 53.3522C481 55.397 480.188 57.3581 478.742 58.8039C477.296 60.2498 475.335 61.0621 473.29 61.0621Z" fill="#F98D36"/>
<path d="M422.466 92.8468L394.41 92.7181V91.532L422.466 91.6607V92.8468Z" fill="#3F3D56"/>
<path d="M473.29 100.205H441.857C439.813 100.205 437.852 99.3924 436.406 97.9465C434.96 96.5006 434.147 94.5396 434.147 92.4948C434.147 90.45 434.96 88.489 436.406 87.0431C437.852 85.5972 439.813 84.7849 441.857 84.7849H473.29C475.335 84.7849 477.296 85.5972 478.742 87.0431C480.188 88.489 481 90.45 481 92.4948C481 94.5396 480.188 96.5006 478.742 97.9465C477.296 99.3924 475.335 100.205 473.29 100.205Z" fill="#F98D36"/>
<path d="M381.364 94.891H349.932C347.887 94.891 345.926 94.0787 344.48 92.6328C343.034 91.1869 342.222 89.2259 342.222 87.1811C342.222 85.1363 343.034 83.1753 344.48 81.7294C345.926 80.2835 347.887 79.4712 349.932 79.4712H381.364C383.409 79.4712 385.37 80.2835 386.816 81.7294C388.262 83.1753 389.074 85.1363 389.074 87.1811C389.074 89.2259 388.262 91.1869 386.816 92.6328C385.37 94.0787 383.409 94.891 381.364 94.891Z" fill="#F98D36"/>
<path d="M338.664 15.4198H307.231C305.186 15.4198 303.225 14.6075 301.779 13.1616C300.333 11.7157 299.521 9.75469 299.521 7.70989C299.521 5.6651 300.333 3.70406 301.779 2.25818C303.225 0.812293 305.186 8.61815e-08 307.231 0H338.664C340.708 8.61815e-08 342.669 0.812293 344.115 2.25818C345.561 3.70406 346.373 5.6651 346.373 7.70989C346.373 9.75469 345.561 11.7157 344.115 13.1616C342.669 14.6075 340.708 15.4198 338.664 15.4198Z" fill="#F98D36"/>
<path d="M188.422 147.781H152.838C151.58 147.781 150.373 148.281 149.483 149.171C148.594 150.06 148.094 151.267 148.094 152.526C148.094 153.784 148.594 154.991 149.483 155.88C150.373 156.77 151.58 157.27 152.838 157.27H165.886V194.04H175.375V157.27H188.422C189.681 157.27 190.888 156.77 191.777 155.88C192.667 154.991 193.167 153.784 193.167 152.526C193.167 151.267 192.667 150.06 191.777 149.171C190.888 148.281 189.681 147.781 188.422 147.781Z" fill="#3F3D56"/>
<path d="M211.908 214.405H116.731C107.504 214.371 98.597 211.019 91.6372 204.961C84.6775 198.903 80.1295 190.543 78.8239 181.409L75.4549 169.016C68.4817 143.336 57.8601 118.789 43.9147 96.1261C37.5408 85.7749 34.2602 75.7549 41.7116 66.1078C41.775 66.0257 41.8374 65.9447 41.8987 65.8648C47.8752 58.086 77.6219 56.4021 87.3192 56.0746C87.7023 56.0615 88.0869 56.0551 88.4729 56.0552H147.672C148.059 56.0552 148.443 56.0616 148.826 56.0746C154.053 56.227 159.142 57.7917 163.552 60.6026C167.963 63.4136 171.53 67.366 173.875 72.0405C176.377 76.813 177.541 82.1739 177.243 87.5545C176.945 92.9351 175.196 98.1345 172.181 102.601C151.386 133.839 145.019 153.426 151.537 166.11C157.843 178.379 177.17 184.652 212.362 185.85C221.819 186.172 226.159 193.537 226.19 200.242C226.219 206.775 222.046 213.987 212.814 214.385C212.514 214.398 212.212 214.405 211.908 214.405Z" fill="#3F3D56"/>
<path d="M132.9 298.917H168.484C169.742 298.917 170.949 298.417 171.839 297.527C172.729 296.637 173.229 295.43 173.229 294.172C173.229 292.914 172.729 291.707 171.839 290.817C170.949 289.927 169.742 289.428 168.484 289.428H155.436V209.363H145.947V289.428H132.9C131.641 289.428 130.435 289.927 129.545 290.817C128.655 291.707 128.155 292.914 128.155 294.172C128.155 295.43 128.655 296.637 129.545 297.527C130.435 298.417 131.641 298.917 132.9 298.917Z" fill="#3F3D56"/>
<path d="M165.106 266.639L171.236 269.969L187.464 247.532L178.416 242.617L165.106 266.639Z" fill="#FFB6B6"/>
<path d="M168.057 258.644L179.185 262.128L177.414 266.791L185.045 277.866C185.422 278.413 185.614 279.066 185.594 279.73C185.573 280.394 185.341 281.034 184.931 281.557C184.521 282.079 183.955 282.457 183.315 282.635C182.675 282.813 181.994 282.782 181.374 282.546L168.419 277.624L167.938 272.164L165.314 276.444L160.429 274.589L168.057 258.644Z" fill="#2F2E41"/>
<path d="M180.595 40.3736C180.74 41.37 180.665 42.3862 180.375 43.3506C180.085 44.315 179.588 45.2041 178.917 45.9552C178.246 46.7064 177.419 47.3014 176.494 47.6983C175.568 48.0952 174.567 48.2844 173.56 48.2525L149.926 98.5419L142.513 88.2049L166.843 40.652C167.009 38.9647 167.788 37.3968 169.032 36.2454C170.277 35.094 171.9 34.4391 173.595 34.4047C175.29 34.3704 176.939 34.9591 178.229 36.0592C179.519 37.1593 180.361 38.6944 180.595 40.3736Z" fill="#FFB6B6"/>
<path d="M102.161 108.71C102.161 108.71 101.528 117.495 111.464 119.218C121.4 120.942 147.961 104.146 152.323 101.567C156.685 98.9876 164.814 66.5396 164.814 66.5396L157.744 54.5823C149.016 65.6234 142.162 75.8046 141.745 83.0318L102.161 108.71Z" fill="#F98D36"/>
<path d="M113.632 138.972L115.778 148.192C115.778 148.192 115.799 156.694 117.304 158.261C118.799 159.822 151.676 156.689 151.676 156.689C151.676 156.689 148.19 142.989 148.237 132.623L113.632 138.972Z" fill="#FFB6B6"/>
<path d="M183.085 256.906L171.223 250.382C170.998 234.947 180.281 214.06 191.292 192.183C166.666 196.418 143.434 197.775 123.339 192.651C120.04 191.78 117.216 189.646 115.478 186.71C113.74 183.773 113.227 180.271 114.05 176.96C114.128 176.635 114.219 176.313 114.321 175.995C116.726 168.657 111.334 164.058 116.294 155.987C129.339 151.532 141.732 150.274 153.064 154.208L160.164 169.907L195.359 165.353C197.059 165.15 198.783 165.285 200.431 165.751C202.078 166.217 203.618 167.005 204.96 168.068C206.302 169.132 207.42 170.451 208.25 171.949C209.08 173.446 209.606 175.094 209.796 176.796C209.843 177.178 209.874 177.561 209.889 177.946C202.772 211.308 194.793 241.327 183.085 256.906Z" fill="#2F2E41"/>
<path d="M108.855 80.6005L122.413 79.8C122.985 79.7662 123.553 79.9116 124.038 80.216C124.523 80.5204 124.901 80.9685 125.12 81.498L128.951 90.7865L144.875 103.948C144.875 103.948 151.18 111.971 151.195 122.333C151.209 132.694 153.431 156.677 153.431 156.677C153.431 156.677 144.23 143.725 138.551 147.17C137.584 147.756 137.244 148.955 136.232 149.56C135.728 149.862 134.561 149.569 134.051 149.871C126.225 154.517 118.064 159.056 117.301 158.26C115.804 156.697 113.987 148.713 113.987 148.713L101.577 103.114C100.904 100.714 100.77 98.196 101.185 95.7391C101.601 93.2821 102.554 90.9475 103.978 88.9026C104.845 87.6819 105.754 86.7737 106.598 86.6235C108.493 86.2199 107.485 81.9715 108.855 80.6005Z" fill="#F98D36"/>
<path d="M224.188 285.954L229.911 281.975L216.946 257.515L208.5 263.387L224.188 285.954Z" fill="#FFB6B6"/>
<path d="M225.053 269.542L216.084 277.559C201.822 261.667 191.04 239.38 181.903 214.069C157.964 207.058 139.91 195.75 124.149 182.324C118.803 177.8 114.795 171.988 119.355 166.477C119.568 166.219 119.79 165.97 120.022 165.729C125.406 160.196 139.06 161.25 147.057 156.181L164.921 175.276L163.798 180.395L197.352 191.761C198.966 192.327 200.453 193.207 201.725 194.35C202.998 195.493 204.032 196.877 204.767 198.422C205.503 199.966 205.925 201.641 206.009 203.35C206.094 205.059 205.84 206.767 205.261 208.377C205.135 208.741 204.994 209.099 204.837 209.451L225.053 269.542Z" fill="#2F2E41"/>
<path d="M220.852 284.341L230.013 277.126L232.86 281.222L246.309 281.181C246.974 281.178 247.621 281.389 248.157 281.781C248.694 282.173 249.091 282.726 249.29 283.359C249.49 283.993 249.482 284.674 249.267 285.302C249.053 285.931 248.643 286.475 248.097 286.854L236.718 294.764L231.941 292.077L233.991 296.66L229.7 299.642L220.852 284.341Z" fill="#2F2E41"/>
<path d="M128.876 195.519C127.949 195.125 127.119 194.533 126.446 193.785C125.772 193.036 125.271 192.149 124.978 191.186C124.684 190.222 124.606 189.206 124.747 188.209C124.889 187.212 125.247 186.259 125.797 185.415L95.1035 139.096L107.787 138.131L135.781 183.624C137.137 184.642 138.072 186.122 138.41 187.783C138.747 189.445 138.463 191.172 137.612 192.639C136.761 194.105 135.401 195.208 133.791 195.739C132.181 196.269 130.432 196.191 128.876 195.519V195.519Z" fill="#FFB6B6"/>
<path d="M111.228 92.9995C111.228 92.9995 104.05 87.8945 97.4158 95.4893C90.782 103.084 91.3359 134.505 91.2736 139.572C91.254 141.159 93.5453 144.583 96.702 148.538C98.1192 150.313 99.7108 152.196 101.346 154.067C102.292 155.15 101.477 157.404 102.427 158.456C103.372 159.503 106.083 159.349 106.982 160.32C111.249 164.931 114.715 168.442 114.715 168.442L128.605 168.612C128.761 158.287 121.69 149.07 112.606 140.163L111.228 92.9995Z" fill="#F98D36"/>
<path d="M97.2271 48.0432C95.9121 48.9923 94.5287 49.9702 92.9241 50.2053C91.3194 50.4405 89.4409 49.6648 88.9968 48.105C88.4538 46.1979 90.176 44.4614 91.7238 43.2219L96.632 39.2917C97.5308 38.4945 98.5455 37.8385 99.6413 37.346C100.192 37.1038 100.79 36.9885 101.391 37.0086C101.992 37.0287 102.58 37.1837 103.113 37.4621C103.641 37.8183 104.068 38.3036 104.355 38.8719C104.642 39.4401 104.779 40.0723 104.752 40.7083C104.682 41.9829 104.261 43.2134 103.536 44.2642C102.625 45.6843 101.436 46.9055 100.041 47.854C98.6454 48.8026 97.0725 49.459 95.4167 49.7837" fill="#2F2E41"/>
<path d="M134.453 150.153H98.8691C97.6107 150.153 96.4039 150.653 95.5142 151.543C94.6244 152.433 94.1245 153.64 94.1245 154.898C94.1245 156.156 94.6244 157.363 95.5142 158.253C96.4039 159.143 97.6107 159.642 98.8691 159.642H111.917V196.413H121.406V159.642H134.453C135.712 159.642 136.918 159.143 137.808 158.253C138.698 157.363 139.198 156.156 139.198 154.898C139.198 153.64 138.698 152.433 137.808 151.543C136.918 150.653 135.712 150.153 134.453 150.153Z" fill="#3F3D56"/>
<path d="M99.4069 38.089C99.5501 34.5317 95.7593 31.715 92.2072 31.9376C88.655 32.1603 85.6014 34.6589 83.587 37.5942C81.5732 40.527 80.3634 43.924 78.7769 47.1084C77.1904 50.2927 75.0777 53.4105 71.9251 55.0607C68.7731 56.7084 64.3855 56.4144 62.2068 53.6011C61.5294 54.6284 61.1036 55.8009 60.9638 57.0235C60.824 58.246 60.9742 59.4844 61.4023 60.6381C62.2942 62.9477 63.9575 64.8777 66.1102 66.1008C66.967 66.6089 67.8823 67.0114 68.8359 67.2994C69.2291 66.238 69.7824 65.243 70.4765 64.3489C70.163 65.4074 70.0433 66.5138 70.1232 67.6148C71.5931 67.8965 73.1052 67.8727 74.5655 67.5448C75.9995 67.224 77.339 66.5735 78.4778 65.6448C79.6166 64.7161 80.5232 63.5347 81.1259 62.1946C82.4581 59.0408 81.7796 55.4449 82.0645 52.0334C82.347 48.6212 84.4031 44.726 87.8268 44.6704C90.4341 44.6275 90.089 44.8425 91.741 46.8598" fill="#2F2E41"/>
<path d="M123.083 56.7816C123.083 60.8712 121.458 64.7933 118.567 67.685C115.675 70.5768 111.753 72.2014 107.663 72.2014C99.1469 72.2014 91.0571 62.3324 91.0571 53.8163C91.0571 45.3001 99.1469 41.3618 107.663 41.3618C111.753 41.3618 115.675 42.9864 118.567 45.8782C121.458 48.7699 123.083 52.692 123.083 56.7816Z" fill="#2F2E41"/>
<path d="M115.262 75.2605C123.222 73.6317 128.354 65.8587 126.725 57.8989C125.097 49.9391 117.323 44.8067 109.364 46.4354C101.404 48.0642 96.2715 55.8372 97.9002 63.797C99.529 71.7568 107.302 76.8892 115.262 75.2605Z" fill="#FFB6B6"/>
<path d="M130.793 58.5608C126.438 59.7499 122.041 60.9964 120.343 58.5608C120.013 56.9459 119.388 55.4058 118.499 54.0179C118.332 55.5722 117.967 57.0988 117.413 58.5608C111.912 59.7567 106.769 60.0426 102.326 58.5608C101.715 59.6659 101.36 60.8942 101.288 62.1548C101.068 62.0168 100.838 61.8958 100.6 61.793C100.459 61.7132 100.302 61.6645 100.14 61.6501C99.9788 61.6358 99.816 61.6562 99.663 61.71C99.5573 61.7738 99.4676 61.861 99.4007 61.9648C99.3339 62.0686 99.2918 62.1863 99.2775 62.309C99.248 62.5564 99.26 62.8069 99.313 63.0503C99.3753 63.8986 99.6287 64.7218 100.054 65.4582C100.223 65.7118 100.442 65.9277 100.698 66.0921C100.955 66.2565 101.242 66.3658 101.543 66.413C102.16 69.8825 107.07 74.5737 107.07 74.5737C92.2437 75.1667 92.2437 65.1083 92.2437 55.5955L94.0229 52.037H99.9535V44.3271H116.559C120.334 44.3281 123.954 45.828 126.623 48.4972C129.292 51.1663 130.792 54.7861 130.793 58.5608Z" fill="#2F2E41"/>
<path d="M265.915 300.633L5.70625 300.815C5.61335 300.816 5.5213 300.798 5.43539 300.762C5.34948 300.727 5.2714 300.675 5.20561 300.609C5.13982 300.544 5.08762 300.466 5.052 300.38C5.01638 300.294 4.99805 300.202 4.99805 300.109C4.99805 300.016 5.01638 299.924 5.052 299.839C5.08762 299.753 5.13982 299.675 5.20561 299.609C5.2714 299.544 5.34948 299.492 5.43539 299.456C5.5213 299.421 5.61335 299.403 5.70625 299.403L265.915 299.221C266.103 299.221 266.282 299.295 266.415 299.428C266.547 299.56 266.621 299.74 266.621 299.927C266.621 300.114 266.547 300.294 266.415 300.426C266.282 300.559 266.103 300.633 265.915 300.633Z" fill="#CACACA"/>
<path d="M439.684 300.633L305.206 300.815C305.113 300.816 305.021 300.798 304.935 300.762C304.849 300.727 304.771 300.675 304.705 300.609C304.639 300.544 304.587 300.466 304.551 300.38C304.516 300.294 304.498 300.202 304.498 300.109C304.498 300.016 304.516 299.924 304.551 299.839C304.587 299.753 304.639 299.675 304.705 299.609C304.771 299.544 304.849 299.492 304.935 299.456C305.021 299.421 305.113 299.403 305.206 299.403L439.684 299.221C439.871 299.221 440.051 299.295 440.183 299.428C440.316 299.56 440.39 299.74 440.39 299.927C440.39 300.114 440.316 300.294 440.183 300.426C440.051 300.559 439.871 300.633 439.684 300.633Z" fill="#CACACA"/>
<path d="M271.862 87.7741H220.886C218.76 87.7717 216.721 86.9259 215.217 85.4224C213.714 83.9188 212.868 81.8801 212.866 79.7537V45.9766C212.868 43.8502 213.714 41.8116 215.217 40.308C216.721 38.8044 218.76 37.9587 220.886 37.9563H271.862C273.989 37.9587 276.027 38.8044 277.531 40.308C279.034 41.8116 279.88 43.8502 279.883 45.9766V79.7537C279.88 81.8801 279.034 83.9188 277.531 85.4224C276.027 86.926 273.989 87.7717 271.862 87.7741ZM220.886 39.1424C219.074 39.1445 217.337 39.8652 216.056 41.1464C214.775 42.4276 214.054 44.1647 214.052 45.9766V79.7537C214.054 81.5656 214.775 83.3028 216.056 84.584C217.337 85.8652 219.074 86.5859 220.886 86.5879H271.862C273.674 86.5859 275.411 85.8652 276.692 84.584C277.974 83.3028 278.694 81.5656 278.696 79.7537V45.9766C278.694 44.1647 277.974 42.4276 276.692 41.1464C275.411 39.8652 273.674 39.1445 271.862 39.1424H220.886Z" fill="#E6E6E6"/>
<path d="M235.99 48.6316H222.354V49.8177H235.99V48.6316Z" fill="#E6E6E6"/>
<path d="M252.601 53.3762H222.354V54.5624H252.601V53.3762Z" fill="#E6E6E6"/>
<path d="M252.601 57.5276H222.354V58.7137H252.601V57.5276Z" fill="#E6E6E6"/>
<path d="M260.904 61.6792H222.354V62.8653H260.904V61.6792Z" fill="#E6E6E6"/>
<path d="M242.519 65.8306H222.354V67.0167H242.519V65.8306Z" fill="#E6E6E6"/>
<path d="M259.125 69.9822H222.354V71.1683H259.125V69.9822Z" fill="#E6E6E6"/>
<path d="M228.878 74.1335H222.354V75.3197H228.878V74.1335Z" fill="#E6E6E6"/>
</g>
<defs>
<clipPath id="clip0_1102_1541">
<rect width="476" height="300.816" fill="white" transform="translate(5)"/>
</clipPath>
</defs>
</svg>
